<?xml version="1.0" standalone="no"?>
<!DOCTYPE svg PUBLIC "-//W3C//DTD SVG 20010904//EN"
 "http://www.w3.org/TR/2001/REC-SVG-20010904/DTD/svg10.dtd">
<svg version="1.0" xmlns="http://www.w3.org/2000/svg"
 width="1200.000000pt" height="1200.000000pt" viewBox="0 0 1200.000000 1200.000000"
 preserveAspectRatio="xMidYMid meet">

<g transform="translate(0.000000,1200.000000) scale(0.100000,-0.100000)"
fill="#000000" stroke="none">
<path d="M5770 11799 c-63 -4 -185 -13 -270 -19 -822 -60 -1713 -341 -2440
-770 -233 -137 -590 -385 -730 -506 -14 -12 -68 -57 -120 -100 -121 -100 -489
-466 -606 -604 -267 -312 -471 -602 -664 -939 -75 -131 -209 -395 -252 -496
-9 -22 -33 -78 -53 -125 -190 -442 -345 -1035 -405 -1545 -39 -328 -52 -818
-30 -1075 30 -347 40 -425 87 -684 53 -294 166 -721 233 -881 5 -11 25 -63 44
-115 36 -97 57 -152 81 -205 7 -16 27 -64 45 -105 123 -284 328 -642 561 -980
211 -307 585 -726 874 -980 33 -29 76 -67 95 -84 286 -255 781 -586 1168 -780
1468 -736 3219 -815 4742 -214 299 118 730 333 900 448 14 10 79 52 145 95
102 66 359 248 375 265 3 3 37 30 75 60 140 107 284 238 481 435 320 319 529
576 759 930 43 66 86 131 95 145 75 112 274 487 347 655 142 325 241 606 311
885 138 547 186 916 187 1450 0 400 -10 557 -56 885 -71 501 -210 989 -430
1505 -58 136 -273 546 -350 665 -306 479 -517 745 -863 1090 -175 174 -281
272 -396 365 -30 25 -57 47 -60 51 -3 3 -68 53 -145 111 -378 284 -792 524
-1200 696 -82 35 -159 68 -170 73 -32 14 -210 78 -325 115 -430 141 -909 236
-1330 264 -91 6 -215 15 -276 20 -125 11 -267 11 -434 -1z m560 -397 l45 -7
-52 -22 c-40 -17 -54 -28 -59 -49 -4 -15 -4 -191 -1 -391 3 -200 2 -363 -2
-363 -14 0 -111 109 -341 384 -190 228 -226 266 -229 245 -2 -13 -1 -135 1
-270 4 -279 6 -287 79 -311 24 -8 45 -20 47 -26 3 -9 -34 -12 -142 -12 -80 0
-146 4 -146 8 0 5 17 14 38 20 79 24 77 15 74 366 -1 171 -5 318 -8 327 -2 9
-33 32 -67 50 l-62 34 65 6 c36 4 104 7 151 8 l87 1 38 -47 c21 -27 112 -138
202 -248 l164 -199 -3 200 c-5 233 -7 241 -91 271 l-53 18 60 6 c86 8 154 8
205 1z m776 -93 c32 -6 101 -30 151 -55 51 -24 97 -44 102 -44 5 0 23 12 40
26 l31 26 0 -35 c0 -36 -23 -173 -42 -242 l-10 -40 -28 76 c-15 41 -40 94 -55
117 -76 115 -252 155 -356 81 -85 -60 -159 -263 -159 -437 0 -114 59 -215 144
-247 24 -9 74 -17 112 -18 l68 -2 17 85 c10 47 18 102 19 122 0 35 -4 39 -47
62 l-48 25 47 1 c43 0 275 -39 343 -58 33 -10 27 -13 -43 -27 -40 -8 -56 -39
-72 -141 -16 -100 -15 -99 -71 -112 -122 -28 -346 -4 -448 48 -69 35 -158 126
-193 198 -31 63 -33 73 -33 172 0 97 2 110 32 173 91 192 280 286 499 246z
m-2239 -126 c17 -65 35 -134 38 -153 l7 -35 -64 62 c-80 77 -135 106 -213 111
-89 6 -142 -12 -196 -67 -61 -60 -73 -104 -66 -236 9 -160 63 -301 147 -379
52 -49 106 -64 182 -52 56 9 138 46 138 62 0 23 -30 145 -46 184 -16 39 -36
49 -108 51 l-31 1 32 13 c49 22 373 104 373 95 0 -4 -16 -20 -35 -34 -42 -33
-43 -43 -10 -172 14 -53 23 -99 22 -101 -27 -26 -192 -110 -261 -132 -119 -37
-194 -45 -277 -27 -156 34 -261 122 -309 260 -86 250 46 493 309 570 36 11 94
16 171 16 l117 0 18 40 c10 22 21 40 24 40 4 0 21 -53 38 -117z m3072 -134
c175 -76 261 -119 261 -130 0 -6 -8 -8 -17 -6 -54 15 -75 16 -92 7 -20 -10
-59 -85 -112 -213 l-28 -68 35 -15 c20 -8 75 -33 122 -55 46 -21 88 -39 92
-39 10 0 120 253 120 277 0 10 -18 36 -40 58 -22 21 -38 40 -36 43 2 2 55 -20
117 -48 63 -28 148 -65 189 -83 69 -28 89 -42 90 -58 0 -3 -23 -1 -50 5 -45 9
-53 8 -70 -10 -29 -29 -280 -588 -280 -624 0 -10 18 -34 40 -53 74 -63 63 -60
-165 41 -82 36 -163 74 -180 84 l-30 19 60 -6 c33 -3 65 -2 71 2 18 13 150
290 142 299 -7 6 -236 104 -245 104 -11 0 -105 -197 -124 -260 l-12 -41 43
-44 c24 -25 39 -45 32 -45 -7 0 -78 29 -157 65 -80 36 -149 65 -153 65 -12 0
-84 51 -79 56 2 3 26 0 52 -6 43 -10 51 -9 67 8 11 10 64 120 119 243 135 301
159 358 159 383 0 12 -17 36 -42 58 -24 21 -37 38 -29 38 7 0 65 -23 130 -51z
m-4139 -118 c0 -5 -7 -14 -16 -22 -8 -7 -22 -25 -30 -41 -18 -36 -15 -44 184
-436 79 -156 142 -285 139 -288 -3 -3 -182 74 -398 170 -217 96 -395 171 -397
167 -3 -10 217 -442 244 -477 21 -29 50 -34 119 -21 l40 8 -25 -21 c-24 -20
-240 -130 -255 -130 -4 0 7 16 25 36 65 75 70 55 -89 371 -159 315 -152 306
-251 304 l-55 -1 30 21 c17 11 77 44 135 73 l105 53 40 -18 c207 -97 521 -239
529 -239 12 0 -158 321 -186 352 -26 28 -30 29 -85 23 -55 -6 -57 -5 -38 10
21 17 214 115 227 115 5 0 8 -4 8 -9z m5177 -417 c134 -82 207 -133 200 -140
-2 -3 -25 1 -50 8 -44 11 -48 11 -73 -12 -21 -21 -303 -462 -343 -537 -18 -34
-13 -50 24 -92 44 -48 44 -56 3 -35 -129 65 -415 262 -333 229 11 -4 37 -13
57 -18 56 -16 49 -25 250 298 124 198 168 275 168 294 0 5 -16 28 -35 51 -19
23 -35 44 -35 46 0 7 47 -19 167 -92z m-6510 -206 c125 -51 126 -52 97 -65
-16 -6 -68 -12 -116 -13 -83 0 -88 -1 -92 -22 -29 -151 -49 -209 -66 -192 -5
5 -19 64 -32 132 l-22 124 49 43 c28 25 51 44 53 45 1 0 60 -23 129 -52z
m3858 22 c1301 -109 2437 -755 3193 -1817 353 -496 605 -1095 716 -1703 51
-278 60 -400 61 -770 0 -361 -8 -466 -56 -740 -201 -1143 -852 -2153 -1814
-2812 -406 -279 -890 -498 -1365 -618 -342 -87 -604 -120 -990 -127 -385 -7
-674 22 -1026 102 -980 222 -1866 795 -2478 1603 -458 606 -745 1317 -842
2092 -21 171 -30 651 -15 833 63 763 307 1455 732 2082 290 427 673 815 1099
1113 596 417 1326 687 2030 752 63 5 131 12 150 13 83 8 495 6 605 -3z m-3524
-110 c133 -25 260 -127 323 -260 29 -60 31 -73 31 -170 0 -98 -2 -110 -32
-171 -63 -127 -209 -237 -345 -259 -124 -20 -261 30 -358 129 -124 127 -159
286 -98 448 42 115 217 256 348 282 63 12 70 12 131 1z m6789 -172 c85 -80
188 -176 228 -214 l73 -69 -48 -56 c-54 -63 -121 -124 -128 -117 -3 3 6 32 20
66 31 77 31 96 -1 160 -23 46 -123 152 -144 152 -8 0 -220 -224 -220 -234 0
-11 79 -46 103 -46 13 0 54 16 91 36 37 19 70 33 73 30 3 -3 -34 -49 -83 -103
-135 -147 -215 -226 -221 -219 -4 3 3 23 14 44 29 52 47 116 40 144 -4 14 -16
37 -28 52 l-22 28 -54 -54 c-89 -86 -153 -167 -153 -193 0 -28 90 -114 153
-144 58 -28 129 -27 212 3 39 14 64 19 62 12 -4 -13 -188 -166 -200 -166 -5 0
-88 74 -185 164 -271 250 -337 314 -330 321 4 4 27 -5 52 -20 35 -21 49 -24
64 -16 21 11 294 295 406 421 36 41 66 84 66 95 0 11 -11 37 -25 57 -56 82
-17 54 185 -134z m199 28 c39 -40 43 -48 47 -107 5 -60 4 -63 -11 -44 -9 11
-29 41 -45 67 -24 38 -43 55 -94 80 -36 17 -63 35 -60 40 3 4 31 8 63 8 54 0
59 -2 100 -44z m-7835 -523 c-14 -47 -14 -54 1 -77 10 -14 108 -99 219 -188
110 -89 239 -193 285 -232 l84 -71 -443 -5 -442 -5 183 -149 c101 -82 206
-163 233 -180 l48 -30 60 33 c72 40 70 31 -29 -91 -114 -141 -132 -155 -98
-75 22 54 19 74 -22 117 -70 74 -457 380 -480 380 -13 0 -46 -9 -75 -20 -28
-11 -53 -18 -55 -17 -4 5 163 213 178 222 6 5 154 7 327 6 l315 -2 -77 63
c-167 136 -252 198 -271 198 -11 0 -40 -12 -64 -25 -24 -14 -46 -24 -48 -22
-2 2 22 37 53 78 56 74 125 151 130 146 2 -2 -4 -26 -12 -54z m8304 -211 c122
-153 159 -213 174 -284 15 -70 1 -122 -45 -175 -98 -112 -233 -93 -370 51
l-70 74 -81 -65 c-156 -127 -164 -139 -130 -204 18 -35 12 -48 -13 -28 -29 24
-254 311 -249 317 4 3 27 -10 53 -28 l46 -34 33 20 c36 21 404 316 472 378 46
42 54 79 27 126 -49 85 17 22 153 -148z m-1196 1 c52 -50 41 -118 -25 -158
l-41 -24 -39 22 c-38 21 -67 61 -67 92 0 31 32 77 63 91 40 17 74 10 109 -23z
m1781 -898 c57 -115 107 -231 107 -249 0 -6 -15 6 -33 28 -22 25 -39 37 -52
35 -18 -4 -364 -374 -365 -391 0 -4 105 -4 233 -1 300 7 319 14 299 108 -8 40
-8 44 5 33 24 -20 135 -256 115 -246 -4 2 -29 15 -57 29 l-50 24 -417 -3
c-241 -2 -418 0 -418 5 0 12 106 137 335 393 105 117 197 224 207 239 13 21
23 62 28 110 0 9 10 -8 63 -114z m-9712 -181 c19 -23 53 -39 329 -150 311
-124 372 -152 366 -162 -3 -5 -187 -64 -410 -133 -223 -68 -406 -127 -406
-130 0 -4 69 -34 153 -67 83 -34 190 -77 237 -95 134 -55 133 -55 190 -1 28
26 50 41 50 35 0 -18 -65 -182 -92 -232 l-23 -44 -3 62 c-3 55 -6 65 -30 82
-38 27 -549 231 -579 231 -30 0 -60 -15 -95 -48 -15 -14 -30 -23 -33 -20 -3 3
11 45 30 93 74 183 73 181 113 193 300 86 561 167 555 173 -5 3 -33 16 -63 27
-30 11 -104 41 -165 66 -136 57 -162 58 -215 10 -22 -20 -40 -32 -40 -26 0 17
30 95 68 177 l37 79 6 -52 c4 -29 13 -59 20 -68z m10107 -826 c74 -242 90
-308 76 -308 -7 0 -21 15 -30 33 -29 56 -29 56 -97 41 -190 -44 -608 -170
-619 -188 -4 -6 -8 -36 -9 -66 l-1 -55 -24 50 c-13 28 -24 56 -24 64 0 8 -15
66 -34 130 -38 131 -50 181 -42 181 3 0 19 -20 36 -45 30 -43 33 -45 68 -39
65 11 590 162 622 179 28 14 30 19 30 70 0 30 4 55 8 55 5 0 23 -46 40 -102z
m-10302 -236 c16 -9 16 -10 -2 -15 -10 -3 -40 -8 -66 -12 -58 -8 -106 -39
-134 -89 -20 -34 -61 -193 -52 -201 1 -1 66 -15 143 -29 77 -15 148 -28 158
-30 14 -4 17 3 17 44 0 61 -20 86 -102 131 -55 30 -60 34 -37 37 28 3 320 -50
377 -69 43 -14 35 -21 -37 -30 -82 -9 -112 -27 -139 -79 l-22 -45 102 -22
c156 -34 211 -38 230 -20 21 22 42 138 35 197 -9 73 -40 125 -109 178 -40 31
-55 48 -45 50 17 3 226 -64 239 -77 7 -6 -44 -293 -103 -583 -20 -100 -39
-133 -39 -70 0 46 -11 69 -37 81 -24 11 -533 115 -624 127 -42 6 -48 4 -61
-17 -8 -13 -25 -40 -37 -59 l-22 -35 6 45 c8 53 88 473 110 576 l16 72 109
-23 c60 -13 117 -28 126 -33z m-361 -148 c-35 -68 -36 -70 -27 -141 4 -40 5
-73 1 -73 -4 0 -21 23 -39 50 -29 45 -31 55 -25 96 3 26 9 53 12 61 6 15 104
85 110 79 2 -2 -12 -34 -32 -72z m10840 -466 c13 -150 27 -301 30 -335 l6 -61
-93 -7 c-51 -4 -109 -5 -128 -3 l-35 3 45 24 c85 44 109 68 126 126 11 41 14
75 8 135 l-7 80 -45 0 c-53 0 -275 -20 -281 -26 -2 -2 4 -24 14 -50 21 -57 59
-81 138 -90 66 -8 72 -25 11 -35 -59 -10 -292 -29 -349 -28 l-50 0 70 34 c88
43 115 73 115 127 l0 40 -92 -6 c-145 -10 -229 -26 -235 -43 -10 -26 15 -179
36 -220 28 -55 70 -91 137 -118 33 -13 60 -30 62 -37 2 -11 -21 -12 -125 -5
-71 5 -129 10 -131 12 -3 3 -62 639 -62 673 0 35 20 22 35 -22 23 -66 16 -65
350 -36 403 36 389 31 401 123 12 88 23 29 49 -255z m-9754 233 c56 -56 29
-153 -47 -167 -90 -17 -151 64 -109 146 19 37 41 49 88 50 29 0 45 -7 68 -29z
m9885 -243 c25 -26 33 -45 38 -88 6 -54 5 -55 -40 -105 l-46 -50 6 35 c19 100
18 145 -3 193 -12 27 -21 53 -21 58 0 15 31 -5 66 -43z m-1022 -79 c38 -45 36
-96 -6 -136 -53 -50 -78 -51 -127 -5 -28 27 -41 47 -41 66 0 61 44 105 107
106 34 0 46 -5 67 -31z m-9924 -208 c11 -46 14 -49 48 -54 79 -13 618 -29 652
-20 30 8 36 15 48 56 7 26 17 47 23 47 20 0 2 -421 -18 -428 -9 -2 -13 7 -13
27 0 42 -19 79 -44 85 -35 8 -661 30 -678 23 -9 -3 -24 -32 -34 -64 -17 -55
-18 -57 -24 -28 -4 17 -5 93 -3 170 7 245 17 291 43 186z m10856 -434 c1 -1
-4 -74 -11 -162 -7 -88 -19 -251 -26 -362 l-12 -203 -56 1 c-31 1 -85 4 -121
8 l-65 7 75 35 c41 20 83 45 92 55 18 20 37 90 38 135 l0 26 -152 11 c-323 24
-517 34 -542 28 -21 -5 -29 -16 -38 -51 -18 -68 -40 -60 -33 13 3 31 10 121
15 200 5 78 12 147 15 153 11 17 25 -1 25 -34 1 -56 18 -67 121 -77 103 -10
536 -40 581 -40 27 0 28 1 28 58 0 80 -23 120 -90 159 -94 55 -95 54 34 48 66
-3 121 -6 122 -8z m-10715 -274 c52 -18 184 -60 294 -93 191 -58 405 -130 405
-135 0 -3 -77 -48 -505 -300 -110 -64 -208 -124 -219 -134 -10 -9 -28 -34 -39
-56 l-21 -40 -17 119 c-25 169 -33 286 -21 286 5 0 15 -20 22 -45 7 -25 16
-47 20 -50 11 -7 101 39 281 145 214 127 207 122 177 133 -91 33 -422 127
-451 127 -42 0 -54 -13 -63 -68 -4 -23 -10 -42 -14 -42 -9 0 -26 95 -36 205
l-7 69 50 -44 c38 -35 72 -52 144 -77z m9774 -890 c8 -33 49 -50 352 -148 304
-99 287 -97 358 -28 45 44 45 33 -6 -125 l-42 -128 -261 -97 c-143 -53 -276
-102 -294 -108 -25 -9 -30 -14 -20 -20 22 -15 320 -107 365 -113 43 -6 45 -4
110 83 2 2 5 2 8 0 7 -7 -32 -142 -63 -219 l-27 -65 -6 53 c-4 29 -15 62 -25
73 -11 12 -145 61 -371 135 -194 63 -351 119 -348 124 5 8 111 50 565 226 124
47 228 89 232 93 8 7 -446 156 -510 167 -30 6 -37 2 -79 -42 l-46 -49 7 37 c8
45 64 216 80 243 10 17 11 14 14 -25 1 -25 5 -55 7 -67z m-8969 -243 c130 -74
210 -239 202 -415 -6 -146 -89 -270 -226 -337 -64 -32 -71 -33 -187 -33 -120
0 -122 0 -197 38 -135 66 -221 187 -240 337 -23 182 -21 175 -48 178 -49 6
-55 12 -31 28 27 19 223 94 246 94 12 0 3 -16 -30 -52 -69 -77 -89 -121 -89
-198 0 -180 157 -283 359 -236 143 34 307 141 342 223 18 44 16 119 -4 179
-21 61 -96 138 -175 179 -31 16 -54 33 -52 37 12 18 81 7 130 -22z m8665 -682
c6 -13 109 -168 227 -345 119 -178 213 -325 210 -328 -3 -3 -113 10 -244 30
-131 19 -316 45 -411 57 l-172 22 -51 -21 c-44 -19 -51 -20 -46 -6 10 24 176
295 194 316 25 29 32 19 17 -24 -8 -23 -15 -47 -15 -54 0 -17 46 -32 127 -43
l61 -8 71 113 c39 63 71 118 71 124 0 13 -53 91 -74 108 -28 23 -65 16 -102
-20 -62 -60 -32 16 60 151 l51 75 7 -62 c4 -34 12 -72 19 -85z m-8240 -248
c151 -47 273 -197 301 -366 22 -130 -23 -253 -128 -354 -106 -102 -227 -142
-365 -121 -121 19 -210 82 -291 205 -116 179 -99 377 46 522 54 54 148 108
214 123 66 16 157 12 223 -9z m405 -24 c36 -36 43 -70 23 -109 -48 -94 -189
-64 -189 40 0 96 98 137 166 69z m7283 -461 c-18 -41 -19 -51 -8 -71 11 -21
65 -74 349 -340 88 -83 141 -124 159 -124 9 0 34 12 54 26 21 14 41 24 43 21
7 -7 -51 -75 -142 -169 l-85 -87 -261 95 c-144 52 -263 92 -266 90 -4 -4 8
-32 157 -355 l71 -154 -79 -86 c-102 -110 -149 -156 -156 -149 -3 3 4 22 16
42 13 23 19 45 15 60 -5 21 -135 149 -404 399 -54 49 -92 77 -107 77 -12 0
-44 -12 -71 -27 l-48 -27 17 25 c28 39 288 309 298 309 6 0 -2 -20 -17 -45
-17 -30 -24 -53 -20 -69 3 -14 96 -108 218 -222 231 -214 264 -244 256 -229
-3 6 -38 82 -78 170 -165 366 -240 538 -236 542 7 7 87 -21 644 -222 66 -24
90 -29 80 -18 -26 33 -426 401 -447 412 -16 9 -32 7 -81 -13 -50 -21 -58 -22
-51 -8 14 27 190 206 196 200 3 -3 -4 -26 -16 -53z m-6980 -304 c83 -78 151
-147 151 -152 0 -5 -21 2 -47 16 -27 14 -55 25 -63 25 -17 0 -90 -66 -181
-163 l-63 -68 94 -94 c52 -52 99 -95 105 -95 11 0 100 89 179 179 52 59 54 78
15 132 -21 31 -23 39 -9 39 12 0 310 -289 310 -301 0 -4 -23 3 -52 16 -50 23
-53 24 -79 7 -29 -18 -405 -406 -447 -460 l-25 -33 26 -55 c17 -35 22 -52 13
-47 -26 15 -244 223 -277 264 l-32 41 41 -21 c75 -38 83 -34 237 127 l59 62
-94 95 c-52 52 -98 95 -103 95 -14 0 -191 -190 -201 -216 -8 -18 -5 -35 13
-70 12 -26 20 -49 17 -51 -3 -3 -74 63 -158 145 -146 144 -179 189 -105 143
19 -11 43 -21 54 -21 12 0 84 65 184 168 246 248 309 318 309 342 0 12 -12 42
-27 67 -38 65 -19 51 156 -116z m5861 -1005 c0 -2 -11 -57 -25 -122 -14 -65
-25 -123 -25 -130 0 -6 50 -39 110 -73 61 -34 110 -66 110 -71 0 -6 -13 -10
-30 -10 -16 0 -74 -5 -130 -11 l-100 -12 -9 -36 c-4 -20 -16 -72 -26 -116 -9
-44 -21 -86 -25 -93 -4 -9 -27 31 -60 107 -30 67 -59 121 -65 121 -12 0 -162
-17 -218 -25 -22 -3 -37 -2 -35 3 1 5 45 46 96 91 50 46 92 87 92 93 0 5 -23
61 -51 124 -28 64 -49 117 -48 119 2 1 54 -26 114 -61 61 -35 115 -63 120 -63
6 0 51 38 100 84 80 75 105 94 105 81z m-4646 -161 l-26 -128 23 -18 c13 -10
66 -42 118 -70 110 -61 108 -63 -52 -74 -67 -5 -113 -12 -121 -21 -7 -7 -23
-65 -36 -129 -12 -63 -26 -117 -30 -120 -3 -2 -31 50 -60 115 -39 90 -58 120
-71 120 -10 0 -63 -5 -118 -11 -55 -6 -107 -9 -116 -7 -11 2 13 29 77 87 51
46 95 88 96 93 2 5 -19 61 -48 124 -28 64 -49 118 -47 120 2 2 54 -25 116 -61
62 -36 114 -65 116 -65 3 0 48 40 102 90 53 49 99 88 101 86 1 -2 -9 -61 -24
-131z m3539 17 c-65 -63 -98 -103 -117 -145 -29 -62 -53 -207 -42 -252 l7 -26
32 27 c50 43 106 64 170 64 110 0 187 -53 244 -168 36 -73 38 -80 38 -176 0
-116 -15 -156 -86 -227 -60 -60 -119 -84 -209 -84 -98 0 -167 32 -242 113 -95
103 -139 225 -139 382 0 177 51 300 175 425 65 66 98 91 166 123 46 23 86 39
89 36 2 -2 -36 -44 -86 -92z m-2303 -68 c0 -13 -63 -211 -166 -527 -57 -175
-104 -333 -104 -352 0 -31 6 -39 55 -71 30 -20 55 -39 55 -42 0 -21 -470 130
-497 160 -17 21 -17 21 0 15 10 -4 43 -10 73 -13 86 -11 89 -5 193 310 126
384 126 382 108 410 -11 17 -32 26 -76 35 -33 7 -63 16 -66 20 -7 12 142 34
413 60 6 0 12 -2 12 -5z m1670 -105 c0 -6 -10 -49 -22 -95 -18 -67 -26 -86
-43 -89 -20 -5 -339 -45 -354 -45 -7 0 -31 -74 -31 -92 0 -2 41 -4 92 -5 164
-3 284 -47 361 -133 61 -67 81 -129 75 -229 -8 -135 -83 -241 -212 -302 -114
-53 -228 -60 -324 -19 -27 12 -46 28 -52 45 -15 39 -13 50 17 85 24 29 31 32
69 27 24 -2 78 -21 121 -41 98 -47 156 -55 200 -27 61 38 84 103 64 179 -16
58 -74 115 -157 154 -69 33 -70 33 -222 33 -148 0 -153 1 -148 20 2 11 28 126
57 255 28 129 52 236 53 237 3 4 383 51 419 52 21 1 37 -4 37 -10z m-976 -25
c62 -21 145 -99 178 -166 55 -113 59 -245 12 -388 -85 -252 -289 -402 -570
-417 -130 -7 -142 7 -31 37 121 32 185 66 247 130 44 45 120 167 120 193 0 3
-15 1 -32 -4 -46 -13 -123 -11 -172 3 -58 18 -129 91 -151 157 -25 77 -17 206
18 283 67 148 232 223 381 172z"/>
<path d="M5695 10214 c-294 -28 -462 -55 -700 -114 -280 -69 -530 -160 -803
-291 -208 -100 -310 -158 -502 -285 -910 -602 -1549 -1534 -1779 -2594 -114
-525 -126 -1077 -35 -1605 215 -1242 985 -2323 2099 -2946 468 -261 965 -421
1540 -496 176 -22 756 -26 930 -5 999 119 1881 551 2560 1253 879 909 1302
2163 1150 3408 -171 1400 -1032 2618 -2295 3245 -446 221 -852 343 -1373 412
-115 15 -686 28 -792 18z m-984 -427 c42 -28 786 -1044 832 -1137 49 -98 45
-155 -22 -340 -29 -80 -72 -199 -96 -265 -47 -130 -94 -259 -156 -427 -38
-100 -39 -108 -26 -140 27 -64 120 -118 170 -99 48 19 55 32 159 316 180 490
268 750 268 790 0 23 -10 61 -23 86 -17 34 -607 863 -835 1174 l-44 60 58 3
c31 2 69 -2 83 -8 17 -7 88 -98 198 -253 170 -239 360 -504 536 -747 114 -157
140 -213 145 -305 4 -64 -1 -84 -51 -230 -156 -455 -312 -870 -344 -914 -94
-131 -254 -131 -382 0 -54 55 -131 157 -416 554 -87 121 -232 321 -323 444
-90 123 -175 247 -188 275 -43 93 -40 108 126 561 83 226 167 452 186 502 48
124 78 145 145 100z m2412 1 c-82 -104 -859 -1201 -874 -1233 -39 -86 -38 -91
222 -805 133 -363 146 -386 218 -384 75 2 141 64 141 132 0 16 -32 114 -71
218 -39 104 -116 315 -171 469 -95 264 -100 283 -95 341 3 41 14 81 33 118 32
62 736 1036 798 1104 32 35 45 42 76 42 23 0 43 -7 54 -19 9 -10 71 -164 137
-342 277 -746 265 -706 230 -798 -10 -26 -90 -147 -178 -267 -88 -121 -258
-356 -378 -524 -366 -510 -377 -525 -468 -572 -32 -17 -60 -22 -113 -23 -65 0
-76 3 -115 31 -24 17 -56 51 -71 75 -40 64 -381 997 -394 1078 -8 49 10 133
41 192 22 42 358 517 697 987 l139 192 76 0 c59 0 73 -3 66 -12z m-3087 -1226
c59 -30 107 -89 352 -427 120 -165 299 -410 398 -545 256 -350 274 -382 274
-494 -1 -107 -48 -175 -151 -212 -52 -18 -593 -43 -959 -44 -216 0 -227 1
-276 24 -78 36 -112 72 -272 289 -82 111 -227 308 -322 437 -95 129 -218 294
-272 366 l-98 131 23 74 23 74 85 -115 c83 -112 662 -896 748 -1014 57 -77
107 -123 150 -137 37 -13 286 -9 837 11 284 10 331 19 353 66 28 62 -3 160
-60 189 -28 15 -66 15 -437 0 -602 -24 -617 -24 -677 7 -27 15 -71 48 -96 75
-37 39 -585 782 -766 1040 -70 99 -68 163 5 182 20 6 228 17 462 26 234 8 441
17 460 19 81 9 175 -1 216 -22z m4792 -27 c357 -14 375 -17 388 -69 3 -13 -2
-40 -10 -60 -13 -31 -556 -789 -752 -1051 -72 -95 -135 -143 -212 -160 -18 -4
-257 1 -532 10 -469 17 -501 17 -525 1 -41 -27 -65 -75 -65 -129 0 -40 5 -54
28 -77 40 -39 52 -40 776 -60 249 -7 361 -7 390 1 55 15 115 81 289 320 436
601 693 946 699 940 3 -3 14 -36 24 -72 l17 -66 -403 -549 c-221 -302 -423
-570 -447 -596 -74 -75 -132 -101 -238 -106 -103 -5 -1037 26 -1075 35 -131
31 -208 148 -180 276 18 88 62 155 351 549 85 116 385 528 501 688 86 119 117
151 173 180 38 20 51 20 255 15 118 -4 365 -12 548 -20z m-5156 -1811 c26 -8
111 -65 199 -131 257 -193 651 -503 702 -552 97 -92 116 -180 62 -279 -57
-105 -104 -129 -515 -262 -173 -56 -488 -158 -700 -228 -329 -108 -394 -126
-450 -126 -85 -1 -106 11 -345 200 -104 82 -284 223 -399 313 -218 172 -245
201 -223 248 21 47 -3 38 948 347 404 131 441 140 516 127 69 -13 93 -26 204
-114 116 -90 560 -436 636 -494 32 -25 65 -43 81 -43 41 0 109 39 132 74 25
41 25 72 1 112 -29 47 -817 661 -885 689 -20 8 -53 15 -76 15 -23 0 -188 -47
-402 -116 -200 -64 -410 -131 -468 -149 -494 -157 -591 -187 -596 -182 -4 3 3
34 15 69 l21 64 308 98 c771 246 991 315 1023 324 53 16 161 14 211 -4z m4840
1 c17 -3 232 -69 477 -146 245 -78 542 -172 660 -209 l214 -68 28 -71 c15 -39
23 -71 18 -71 -5 0 -163 49 -351 109 -1155 368 -1125 360 -1198 328 -58 -24
-853 -645 -884 -689 -47 -67 21 -171 121 -185 37 -5 45 0 163 93 553 436 686
535 739 551 80 23 141 13 366 -60 172 -56 821 -267 1013 -329 64 -20 132 -74
132 -103 0 -29 -65 -87 -332 -296 -149 -118 -327 -258 -396 -313 -70 -54 -141
-105 -159 -112 -48 -21 -154 -17 -221 6 -31 12 -338 111 -682 221 -664 212
-764 251 -823 319 -42 50 -72 136 -62 182 9 41 37 95 67 130 44 51 826 657
891 690 22 11 61 23 86 28 44 7 64 6 133 -5z m-3813 -1281 c108 -32 173 -137
156 -251 -7 -46 -166 -616 -251 -898 -25 -82 -56 -169 -70 -192 -25 -42 -90
-105 -134 -128 -29 -15 -1347 -455 -1363 -455 -12 0 -127 72 -127 80 0 3 312
108 693 234 380 126 714 240 741 254 26 15 59 40 71 57 34 45 315 1000 318
1082 2 32 -4 47 -22 67 -49 52 -145 58 -196 13 -21 -18 -41 -78 -115 -342
-187 -661 -193 -680 -255 -733 -57 -50 -112 -73 -400 -166 -148 -48 -418 -136
-600 -196 -181 -59 -347 -111 -367 -115 -42 -8 -104 9 -116 32 -5 9 -5 35 0
62 8 37 184 674 259 931 26 93 66 150 125 182 27 15 128 52 224 83 96 31 399
131 674 222 618 204 644 210 755 177z m2759 0 c60 -12 553 -169 817 -259 22
-8 173 -57 335 -109 311 -101 371 -128 409 -189 27 -45 301 -995 304 -1055 2
-36 -2 -47 -23 -64 -39 -31 -91 -20 -435 92 -170 56 -443 144 -605 196 -162
53 -315 105 -340 117 -25 11 -66 42 -91 67 -56 56 -56 57 -214 610 -63 223
-120 415 -125 427 -29 69 -193 72 -230 4 -24 -47 -11 -107 150 -651 29 -96 67
-227 86 -291 57 -197 70 -219 153 -258 31 -14 363 -127 739 -251 375 -124 682
-228 682 -231 0 -10 -108 -79 -124 -79 -20 0 -1281 418 -1342 445 -67 30 -130
87 -159 146 -14 26 -44 114 -69 196 -89 294 -237 816 -247 866 -14 76 4 149
49 199 42 47 61 58 127 74 66 16 64 16 153 -2z m-1713 -765 c59 -16 119 -71
152 -137 l28 -57 3 -807 c3 -802 2 -808 -18 -857 -12 -27 -33 -60 -48 -74 -37
-35 -872 -593 -900 -602 -13 -4 -34 -4 -48 -1 -53 14 -53 6 -55 757 -2 507 0
705 9 734 23 79 64 128 168 200 55 38 119 83 144 100 25 17 168 114 318 214
150 101 279 193 287 204 33 47 9 154 -44 194 -23 17 -76 16 -114 -3 -34 -18
-323 -212 -659 -443 -202 -138 -248 -178 -271 -230 -8 -18 -13 -253 -17 -783
-3 -416 -8 -759 -12 -763 -3 -3 -32 13 -63 37 l-56 43 6 715 c7 784 7 777 68
866 39 56 130 122 633 460 366 246 393 259 489 233z m709 -31 c91 -46 876
-580 927 -630 41 -41 75 -112 88 -183 7 -39 11 -294 11 -751 l0 -692 -55 -41
c-30 -22 -56 -41 -58 -41 -3 0 -7 341 -9 758 -4 739 -5 758 -25 802 -11 25
-31 55 -44 66 -30 27 -413 290 -692 476 -186 123 -213 138 -251 138 -69 0
-116 -65 -116 -163 0 -33 5 -41 43 -67 23 -16 216 -147 429 -291 236 -159 397
-274 413 -295 15 -20 36 -60 46 -89 18 -52 19 -92 19 -745 0 -604 -2 -695 -15
-721 -21 -40 -57 -53 -99 -35 -57 24 -872 574 -904 610 -59 67 -57 41 -57 901
0 731 1 794 18 841 55 158 193 221 331 152z"/>
<path d="M2513 10095 c-124 -76 -116 -220 22 -401 139 -181 275 -260 380 -220
147 57 151 222 10 406 -158 205 -304 282 -412 215z"/>
<path d="M10125 9153 c-71 -58 -130 -111 -130 -116 0 -19 86 -77 113 -77 15 0
47 10 72 21 79 35 130 98 130 158 0 29 -38 122 -49 120 -4 0 -64 -48 -136
-106z"/>
<path d="M10222 3453 l-61 -98 142 -22 c78 -12 143 -20 144 -19 3 2 -142 215
-155 228 -6 6 -32 -28 -70 -89z"/>
<path d="M1938 3389 c-125 -29 -357 -200 -409 -301 -45 -88 -28 -178 47 -234
34 -26 45 -29 114 -29 70 0 84 4 161 42 163 82 290 201 325 305 20 61 6 114
-43 168 -49 55 -108 70 -195 49z"/>
<path d="M7345 1125 c-56 -26 -57 -26 -39 -86 39 -133 112 -277 172 -341 14
-15 41 -31 60 -34 74 -14 92 67 46 204 -36 108 -79 185 -130 232 -47 43 -63
47 -109 25z"/>
<path d="M5682 1323 c-39 -38 -57 -133 -55 -281 1 -126 14 -160 72 -199 29
-20 35 -20 64 -8 28 11 34 20 45 72 17 79 19 265 3 335 -14 66 -34 94 -73 104
-22 5 -33 0 -56 -23z"/>
</g>
</svg>
